<?xml version="1.0" encoding="UTF-8" standalone="no"?>
<svg
   xmlns:dc="http://purl.org/dc/elements/1.1/"
   xmlns:cc="http://creativecommons.org/ns#"
   xmlns:rdf="http://www.w3.org/1999/02/22-rdf-syntax-ns#"
   xmlns:svg="http://www.w3.org/2000/svg"
   xmlns="http://www.w3.org/2000/svg"
   id="svg2"
   version="1.1"
   xml:space="preserve"
   width="228.14667"
   height="101"
   viewBox="0 0 228.14667 101"><metadata
     id="metadata8"><rdf:RDF><cc:Work
         rdf:about=""><dc:format>image/svg+xml</dc:format><dc:type
           rdf:resource="http://purl.org/dc/dcmitype/StillImage" /><dc:title></dc:title></cc:Work></rdf:RDF></metadata><defs
     id="defs6" /><g
     id="g10"
     transform="matrix(1.3333333,0,0,-1.3333333,0,101)"><g
       id="g12"
       transform="scale(0.1)"><path
         id="path88"
         style="fill:#231f20;fill-opacity:1;fill-rule:evenodd;stroke:none"
         d="M204.41 560.629L202.441 505.984L200.098 420.766L201.252037109 382.130957031L205.339359375 348.31009375L213.297783203 318.490808594L226.065125 291.8605L244.579201172 267.606566406L269.777828125 244.91640625L302.598822266 222.977417969L343.98 200.977L385.352134766 222.970878906L418.167953125 244.90421875L443.364451172 267.589199219L461.878625 291.838L474.647470703 318.462800781L482.607984375 348.27578125L486.697162109 382.089121094L487.852 420.715L485.492 506.02L483.559 560.629L204.41 560.629L204.41 560.629M492.922 570.098L495.195 505.648L497.016953125 394.17009375L492.752466797 350.173878906L482.592125 312.13625L464.701767578 278.654777344L437.247234375 248.32703125L398.394365234 219.750582031L346.309 191.523L343.98 190.41L341.676 191.523L289.585150391 219.750513672L250.727640625 248.326484375L223.269029297 278.652931641L205.374875 312.131875L195.210736328 350.165333984L190.942171875 394.155328125L192.754 505.613L195.051 570.113L492.922 570.098" /><path
         id="path90"
         style="fill:#231f20;fill-opacity:1;fill-rule:evenodd;stroke:none"
         d="M361.234 438.84L374.234 438.324L374.234 437.148L360.945 437.75L353.28575 439.155375L346.309 437.359L346.309 438.676L353.5945 440.2535L361.234 438.84L361.234 438.84M361.234 459.297L374.234 458.754L374.234 457.539L360.945 458.176L353.29025 459.597L346.309 457.805L346.309 459.141L353.599 460.696875L361.234 459.297L361.234 459.297M361.234 449.102L374.234 448.574L374.234 447.379L360.945 448.012L353.28575 449.415375L346.309 447.629L346.309 448.945L353.599 450.507375L361.234 449.102L361.234 449.102M340.898 438.676L340.898 437.359L333.873875 439.155375L326.246 437.75L312.938 437.148L312.938 438.324L325.961 438.84L333.600875 440.2535L340.898 438.676L340.898 438.676M340.898 459.141L340.898 457.805L333.873875 459.597L326.246 458.176L312.938 457.539L312.938 458.754L325.961 459.297L333.59825 460.696875L340.898 459.141L340.898 459.141M340.898 448.945L340.898 447.629L333.873875 449.415375L326.246 448.012L312.938 447.379L312.938 448.574L325.961 449.102L333.59825 450.507375L340.898 448.945L340.898 448.945M376.488 429.977L369.34625 427.780375L361.27 428.871L352.457875 430.015625L344.164 426.637L344.164 465.535L352.03575 469.091125L360.98 467.77L368.935 466.421875L376.488 468.367L376.488 429.977L376.488 429.977M310.645 468.367L318.263 466.421875L326.277 467.77L335.203625 469.17825L343.102 465.434L343.102 426.637L334.843875 430.015625L326.0 428.871L317.92275 427.643L310.645 430.027L310.645 468.367L310.645 468.367M382.652 466.117L382.652 464.867L377.523 468.559L377.523 429.488L369.258 426.742L352.555 429.062L344.258 425.281L343.035 425.281L340.76425 427.1715L334.664 429.062L317.953 426.621L309.742 429.59L309.742 468.809L304.574 464.867L304.574 466.117L309.742 470.426L310.637 469.742L317.922875 467.4485L326.012 468.863L335.09 470.1705L343.652 466.363L352.153 470.203125L361.254 468.863L369.311125 467.4485L376.586 469.742L377.523 470.426L382.652 466.117L382.652 466.117M382.445 425.898L374.477 423.633L353.645 426.48L346.414625 424.76575L343.652 422.633L341.16525 424.5565L333.883 426.48L311.625 423.754L304.723 425.898L304.781 464.887L300.348 464.887L300.348 421.539L336.754 421.539L338.319375 419.5095L343.652 417.48L348.84975 419.5095L350.473 421.539L387.141 421.539L387.043 464.887L382.426 464.887L382.445 425.898" /><path
         id="path92"
         style="fill:#231f20;fill-opacity:1;fill-rule:nonzero;stroke:none"
         d="M337.266 362.473L337.078 366.172L342.191 364.578L337.266 362.473" /><path
         id="path94"
         style="fill:none;stroke:#231f20;stroke-width:2.3387301;stroke-linecap:butt;stroke-linejoin:miter;stroke-miterlimit:4;stroke-dasharray:none;stroke-opacity:1"
         d="M264.004 332.062L258.031 325.664L260.113 326.699L263.895 326.992L264.004 332.062L264.004 332.062" /><path
         id="path96"
         style="fill:#231f20;fill-opacity:1;fill-rule:nonzero;stroke:none"
         d="M335.961 357.023L337.301 353.809L339.16 356.98L337.426 357.09L335.961 357.023" /><path
         id="path98"
         style="fill:#231f20;fill-opacity:1;fill-rule:nonzero;stroke:none"
         d="M332.719 353.379L334.348 356.848L331.684 356.316L332.719 353.379" /><path
         id="path100"
         style="fill:#231f20;fill-opacity:1;fill-rule:nonzero;stroke:none"
         d="M327.344 355.051L328.688 352.734L329.672 355.793L327.898 355.227L327.344 355.051" /><path
         id="path102"
         style="fill:none;stroke:#231f20;stroke-width:2.3387301;stroke-linecap:butt;stroke-linejoin:miter;stroke-miterlimit:4;stroke-dasharray:none;stroke-opacity:1"
         d="M293.418 343.145L290.895 345.906L285.703 347.129L283.246 346.562L287.555 342.52L293.418 343.145L293.418 343.145" /><path
         id="path104"
         style="fill:#231f20;fill-opacity:1;fill-rule:nonzero;stroke:none"
         d="M339.957 349.109L338.793 345.176L341.602 346.055L339.957 349.109" /><path
         id="path106"
         style="fill:#231f20;fill-opacity:1;fill-rule:nonzero;stroke:none"
         d="M331.215 348.547L329.895 346.133L332.445 345.527L331.215 348.547" /><path
         id="path108"
         style="fill:#231f20;fill-opacity:1;fill-rule:nonzero;stroke:none"
         d="M336.824 344.98L335.496 348.535L334.234 345.195L336.77 344.98L336.824 344.98" /><path
         id="path110"
         style="fill:none;stroke:#231f20;stroke-width:2.3387301;stroke-linecap:butt;stroke-linejoin:miter;stroke-miterlimit:4;stroke-dasharray:none;stroke-opacity:1"
         d="M269.375 306.887L267.219 307.109L259.566 303.02L266.062 302.188L269.375 306.887L269.375 306.887" /><path
         id="path112"
         style="fill:none;stroke:#231f20;stroke-width:2.3387301;stroke-linecap:butt;stroke-linejoin:miter;stroke-miterlimit:4;stroke-dasharray:none;stroke-opacity:1"
         d="M261.543 292.227L260.582 293.926L256.41 290.996L254.836 286.25L258.074 288.184L260.84 288.301L261.543 292.227L261.543 292.227" /><path
         id="path114"
         style="fill:none;stroke:#231f20;stroke-width:2.3387301;stroke-linecap:butt;stroke-linejoin:miter;stroke-miterlimit:4;stroke-dasharray:none;stroke-opacity:1"
         d="M261.801 281.926L259.656 274.668L261.008 272.578L265.293 276.699L261.801 281.926L261.801 281.926" /><path
         id="path116"
         style="fill:none;stroke:#231f20;stroke-width:2.3387301;stroke-linecap:butt;stroke-linejoin:miter;stroke-miterlimit:4;stroke-dasharray:none;stroke-opacity:1"
         d="M300.785 277.324L293.383 276.672L290.574 274.492L297.219 272.996L300.785 277.324L300.785 277.324" /><path
         id="path118"
         style="fill:none;stroke:#231f20;stroke-width:2.3387301;stroke-linecap:butt;stroke-linejoin:miter;stroke-miterlimit:4;stroke-dasharray:none;stroke-opacity:1"
         d="M272.887 272.227L275.48 266.719L278.297 265.449L278.324 271.941L275.648 272.805L272.887 272.227L272.887 272.227" /><path
         id="path120"
         style="fill:none;stroke:#231f20;stroke-width:2.3387301;stroke-linecap:butt;stroke-linejoin:miter;stroke-miterlimit:4;stroke-dasharray:none;stroke-opacity:1"
         d="M290.562 268.301L282.68 263.66L286.059 264.16L288.922 263.711L290.562 268.301L290.562 268.301" /><path
         id="path122"
         style="fill:none;stroke:#231f20;stroke-width:2.3387301;stroke-linecap:butt;stroke-linejoin:miter;stroke-miterlimit:4;stroke-dasharray:none;stroke-opacity:1"
         d="M347.371 254.59L348.434 256.895L343.96675 256.647875L341.352 253.574L345.867 253.184L347.371 254.59L347.371 254.59" /><path
         id="path124"
         style="fill:none;stroke:#231f20;stroke-width:2.3387301;stroke-linecap:butt;stroke-linejoin:miter;stroke-miterlimit:4;stroke-dasharray:none;stroke-opacity:1"
         d="M288.477 255.0L287.77 257.07L284.07675 254.88475L282.59 250.508L287.688 251.863L288.477 255.0L288.477 255.0" /><path
         id="path126"
         style="fill:none;stroke:#231f20;stroke-width:2.3387301;stroke-linecap:butt;stroke-linejoin:miter;stroke-miterlimit:4;stroke-dasharray:none;stroke-opacity:1"
         d="M340.305 248.723L335.646625 248.13175L332.945 244.746L339.199 244.961L340.168 246.816L340.305 248.723L340.305 248.723" /><path
         id="path128"
         style="fill:none;stroke:#231f20;stroke-width:2.3387301;stroke-linecap:butt;stroke-linejoin:miter;stroke-miterlimit:4;stroke-dasharray:none;stroke-opacity:1"
         d="M298.23 245.574L298.010375 242.865125L300.469 238.984L302.574 243.73L298.23 245.574L298.23 245.574" /><path
         id="path130"
         style="fill:none;stroke:#231f20;stroke-width:2.3387301;stroke-linecap:butt;stroke-linejoin:miter;stroke-miterlimit:4;stroke-dasharray:none;stroke-opacity:1"
         d="M340.812 230.059L337.82 223.32L339.039 221.445L343.277 226.484L342.512 228.652L340.812 230.059L340.812 230.059" /><path
         id="path132"
         style="fill:none;stroke:#231f20;stroke-width:2.3387301;stroke-linecap:square;stroke-linejoin:bevel;stroke-miterlimit:4;stroke-dasharray:none;stroke-opacity:1"
         d="M322.258 349.355L338.469 351.27L342.969 352.59L338.59 352.449L323.32 351.309L318.2575 352.3145L315.523 355.84L316.363 358.379L312.566 353.906L315.205875 350.649125L322.258 349.355L322.258 349.355" /><path
         id="path136"
         style="fill:none;stroke:#231f20;stroke-width:2.3387301;stroke-linecap:butt;stroke-linejoin:miter;stroke-miterlimit:4;stroke-dasharray:none;stroke-opacity:1"
         d="M263.148 317.949L263.914 322.52L256.254 317.305L263.148 317.949L263.148 317.949" /><path
         id="path138"
         style="fill:none;stroke:#231f20;stroke-width:2.3387301;stroke-linecap:butt;stroke-linejoin:miter;stroke-miterlimit:4;stroke-dasharray:none;stroke-opacity:1"
         d="M336.484 235.488L336.996 240.039L332.636625 238.148875L330.234 234.023L332.488 235.359L336.484 235.488L336.484 235.488" /><path
         id="path140"
         style="fill:none;stroke:#231f20;stroke-width:2.3387301;stroke-linecap:butt;stroke-linejoin:miter;stroke-miterlimit:4;stroke-dasharray:none;stroke-opacity:1"
         d="M341.602 346.055L343.148 347.012L345.09 351.152L342.98 355.793L339.16 356.98L337.426 357.09L335.961 357.023L334.348 356.848L331.684 356.316L329.672 355.793L327.898 355.227L327.344 355.051L324.1415 354.215375L321.086 356.406L320.238 358.586L319.273 360.586L318.148 363.477L322.656 364.707L329.309 366.27L330.891 368.461L333.102 370.254L339.469 371.398L345.684 370.906L352.945 377.191L352.703 369.324L360.191 368.023L362.598 368.637L360.359875 364.946375L356.168 363.301L361.531 361.992L367.18 363.73L366.801 360.801L359.199 357.441L366.5155 355.43L372.719 359.551L374.27 355.09L371.145 349.922L362.367 348.02L363.3845 346.4905L367.273 344.961L373.391 346.609L371.97825 343.138125L363.52 339.863L358.445375 341.093375L355.293 344.492L352.71325 341.459875L351.059 333.828L347.698125 336.82175L346.723 341.992L342.735875 337.6955L341.406 331.113L337.379 339.27L334.039875 335.735875L332.605 330.254L328.688 333.926L329.425203125 329.4241875L332.243375 326.821L336.719 325.332L336.023 333.293L339.033125 328.571125L344.75 326.562L345.168 335.535L348.18525 331.11175L353.73 329.375L355.359 339.246L360.93 336.523L363.484 333.242L368.785 332.234L363.012 329.07L356.465 331.23L358.684 326.113L364.246 324.836L361.688 322.441L354.858875 321.9925L349.316 325.027L351.859 319.934L359.082 318.184L351.918 314.941L343.652 318.84L348.883 313.215L352.25 312.578L360.141 304.492L373.074 300.242L385.024375 294.668625L390.992 282.949L401.074 282.793L402.945 288.977L397.516 296.602L387.402 303.738L374.188 314.57L370.566 326.57L376.648 336.406L385.414 338.613L399.727 333.73L417.633 315.293L423.074 310.293L429.066 310.801L430.598 312.754L429.828 308.105L424.82 305.703L420.621 306.531L420.652 306.172L423.789875 304.049875L425.676 299.719L425.27225 295.187375L427.195 292.227L431.871 295.859L430.23 301.262L434.808375 300.23075L435.777 295.625L438.375625 300.39075L437.309 306.094L436.035 307.402L441.5 302.422L439.234 291.66L433.170375 287.399L425.738 286.516L420.58175 287.5065L414.449 291.113L411.21025 297.3745L411.438 305.52L409.703 303.496L405.082 305.148L404.597625 309.2205L407.348 312.051L408.953 308.293L411.488 309.562L410.71675 314.8545L407.883 318.77L396.957 329.079375L389.72353125 332.622265625L382.035 332.656L377.95425 329.450375L376.797 323.496L381.523 316.047L391.168 308.73L405.227 297.871L409.684 288.066L407.371 280.383L400.8325 276.047125L391.438 276.824L389.52 264.453L398.066 269.133L400.266 268.73L398.668 267.637L395.508 262.5L390.992 257.656L384.355 256.367L388.193 254.44325L393.27 255.098L394.824 255.773L389.602 249.922L377.094 248.367L386.625 245.73L379.8595 241.959L370.973 242.148L379.238 239.102L372.421125 236.03725L363.199 236.445L351.051 230.996L347.94475 227.856875L343.277 226.484L342.512 228.652L340.812 230.059L342.883 232.344L348.422 235.684L339.234 234.395L336.484 235.488L336.996 240.039L339.59 240.762L346.328 239.668L349.281 241.211L346.855 242.148L339.199 244.961L340.168 246.816L340.305 248.723L342.934 249.246L350.438 246.328L352.008 246.914L347.113 250.676L345.867 253.184L347.371 254.59L348.434 256.895L352.008 256.367L358.477 248.281L362.621 248.965L370.922 255.684L372.289 262.805L363.391 269.48L361.422 274.492L364.254 282.676L364.102 284.336L359.727 277.48L358.965 270.32L356.625 271.133L351.188 272.012L347.2075 270.731375L345.867 267.371L349.133 263.613L352.98 264.719L349.664 260.645L341.176 259.949L335.219 256.543L335.676 253.816L337.07 252.129L334.086 251.621L327.281 255.859L327.84425 251.466625L331.211 249.055L329.473 248.215L321.059 250.234L322.887 245.625L319.691 243.887L314.84425 244.968375L311.781 248.32L310.23 250.059L308.738 249.094L305.332 244.504L302.574 243.73L298.23 245.574L299.281 247.773L303.855 251.777L302.523 252.383L293.805 250.176L291.188 250.078L287.688 251.863L288.477 255.0L287.77 257.07L290.703 257.883L296.54725 256.80025L301.586 257.93L296.195 259.285L288.922 263.711L290.562 268.301L293.93 268.477L300.84 264.363L303.938 263.711L303.02 266.172L298.793 270.059L297.219 272.996L300.785 277.324L304.68 276.074L311.109 264.562L320.99825 262.076875L326.02903125 263.342640625L328.945 266.953L327.535 276.145L328.785 282.07L334.18 281.152L344.082 283.879L349.488 287.363L335.57 284.883L325.844 288.203L327.504 289.551L330.629625 294.662875L330.852 300.293L329.664 302.539L328.076125 297.778625L319.223 288.75L317.836 298.273L314.184 288.223L309.562 285.48L310.395 287.023L309.277 294.707L307.836 289.102L301.484 282.324L298.863 281.926L300.613 284.98L299.828 290.535L292.141 280.73L285.664 279.199L287.555 281.035L291.012 286.27L281.129 282.617L280.156 280.906L279.762 274.688L278.324 271.941L275.648 272.805L272.887 272.227L272.793 274.961L275.18 282.266L268.145 277.219L265.293 276.699L261.801 281.926L265.172 284.23L269.795125 285.167375L272.91 287.637L270.219 288.066L263.977 287.148L260.84 288.301L261.543 292.227L260.582 293.926L264.102 294.863L270.129 293.242L272.781 293.352L269.351375 297.801875L266.062 302.188L269.375 306.887L273.270125 305.390125L275.258 301.758L276.105 298.273L283.496 296.836L291.262 301.602L299.672 305.566L305.836 308.379L299.273 307.434L292.387 305.918L286.699 306.953L289.312 307.891L292.965 312.91L288.644625 310.53475L278.676 309.082L276.781 309.766L284.547 315.645L272.262 312.246L268.953 313.035L267.734 314.082L268.883 314.133L277.637 319.473L274.309 318.75L266.832 316.398L263.148 317.949L263.914 322.52L272.133 322.355L275.371 324.004L272.969 325.027L266.848 325.137L263.895 326.992L264.004 332.062L267.5 333.203L276.059 329.688L278.93 329.785L278.559 331.543L274.055 334.805L272.859 336.875L276.09 341.035L280.039 339.355L284.281 335.293L284.578 338.738L287.555 342.52L293.418 343.145L291.282125 337.4345L288.391 332.234L289.48 327.996L298.074 320.469L306.891 316.953L319.68 316.418L311.626125 318.256875L308.652 324.988L309.562 327.578L313.682125 323.839625L319.75 324.68L314.16375 327.578375L313.367 334.133L318.48 331.973L321.93475 332.478L325.445 336.484L325.50375 340.129875L322.516 342.305L322.656 346.262L325.141 346.953L329.895 346.133L332.445 345.527L334.234 345.195L336.77 344.98L336.824 344.98L338.793 345.176L341.602 346.055L341.602 346.055" /><path
         id="path148"
         style="fill:none;stroke:#231f20;stroke-width:2.3387301;stroke-linecap:round;stroke-linejoin:round;stroke-miterlimit:4;stroke-dasharray:none;stroke-opacity:1"
         d="M343.684 521.82L352.8356875 520.22790625L360.37825 515.88275L365.4994375 509.43121875L367.387 501.52L364.170125 491.217125L355.797 483.906L357.797 484.73L372.908125 496.006625L377.206203125 503.988453125L378.738 513.02L376.018890625 525.113859375L368.565875 534.978625L357.435421875 541.623828125L343.684 544.059L329.9290625 541.623828125L318.79575 534.978625L311.3408125 525.113859375L308.621 513.02L310.153 503.988453125L314.45175 496.006625L329.566 484.73L331.566 483.906L323.19225 491.217125L319.977 501.52L321.8640625 509.43121875L326.98475 515.88275L334.5283125 520.22790625L343.684 521.82L343.684 521.82" /><path
         id="path150"
         style="fill:none;stroke:#231f20;stroke-width:2.3387301;stroke-linecap:butt;stroke-linejoin:miter;stroke-miterlimit:4;stroke-dasharray:none;stroke-opacity:1"
         d="M359.844 486.105L368.696625 495.249L371.91 507.48L369.680921875 517.547359375L363.613625 525.759875L354.638015625 531.292453125L343.684 533.32L332.72371875 531.292453125L323.747 525.759875L317.68103125 517.547359375L315.453 507.48L318.6615 495.249L327.516 486.105" /><path
         id="path358"
         style="fill:none;stroke:#231f20;stroke-width:2.3387301;stroke-linecap:butt;stroke-linejoin:miter;stroke-miterlimit:4;stroke-dasharray:none;stroke-opacity:1"
         d="M466.98 320.332L475.083296875 350.731390625L478.935125 385.542375L478.477 472.148L220.918 320.332L212.835625 350.630109375L208.9795 385.299125L209.41 471.48L466.98 320.332L466.98 320.332" /><path
         d="m 474.965,551.191 -261.621,0 -2.758,-72.976 267.348,0 -2.969,72.976 z"
         style="fill:none;stroke:#231f20;stroke-width:2.3387301;stroke-linecap:butt;stroke-linejoin:miter;stroke-miterlimit:4;stroke-dasharray:none;stroke-opacity:1"
         id="path422" /><path
         d="m 238.727,514.055 17.113,19.175 16.855,-19.507 -16.797,-18.899 -17.171,19.231 z m 17.113,32.449 -28.887,-32.52 28.887,-32.504 28.168,32.504 -28.168,32.52 z"
         style="fill:none;stroke:#231f20;stroke-width:2.3387301;stroke-linecap:butt;stroke-linejoin:miter;stroke-miterlimit:4;stroke-dasharray:none;stroke-opacity:1"
         id="path424" /><path
         d="m 414.402,514.055 17.118,19.175 16.855,-19.507 -16.797,-18.899 -17.176,19.231 z m 17.118,32.449 -28.887,-32.52 28.887,-32.504 28.171,32.504 -28.171,32.52 z"
         style="fill:none;stroke:#231f20;stroke-width:2.3387301;stroke-linecap:butt;stroke-linejoin:miter;stroke-miterlimit:4;stroke-dasharray:none;stroke-opacity:1"
         id="path488" /><path
         id="path134"
         style="fill:none;stroke:#231f20;stroke-width:2.3387301;stroke-linecap:butt;stroke-linejoin:miter;stroke-miterlimit:4;stroke-dasharray:none;stroke-opacity:1"
         d="M272.859 336.875L276.09 341.035L270.446375 340.531125L266.977 336.98L272.859 336.875L272.859 336.875" /></g></g></svg>