<?xml version="1.0" encoding="UTF-8" standalone="no"?>
<svg
   xmlns:dc="http://purl.org/dc/elements/1.1/"
   xmlns:cc="http://creativecommons.org/ns#"
   xmlns:rdf="http://www.w3.org/1999/02/22-rdf-syntax-ns#"
   xmlns:svg="http://www.w3.org/2000/svg"
   xmlns="http://www.w3.org/2000/svg"
   xmlns:sodipodi="http://sodipodi.sourceforge.net/DTD/sodipodi-0.dtd"
   xmlns:inkscape="http://www.inkscape.org/namespaces/inkscape"
   viewBox="0 0 40.199548 49.565476"
   height="49.565475"
   width="40.199547"
   xml:space="preserve"
   version="1.1"
   id="svg2"
   sodipodi:docname="crest-simple.svg"
   inkscape:version="0.92.5 (2060ec1f9f, 2020-04-08)"><sodipodi:namedview
     pagecolor="#ffffff"
     bordercolor="#666666"
     borderopacity="1"
     objecttolerance="10"
     gridtolerance="10"
     guidetolerance="10"
     inkscape:pageopacity="0"
     inkscape:pageshadow="2"
     inkscape:window-width="1920"
     inkscape:window-height="1016"
     id="namedview71"
     showgrid="false"
     inkscape:zoom="9.3230767"
     inkscape:cx="59.8437"
     inkscape:cy="22.014533"
     inkscape:window-x="0"
     inkscape:window-y="27"
     inkscape:window-maximized="1"
     inkscape:current-layer="g12"
     inkscape:snap-global="false" /><metadata
     id="metadata8"><rdf:RDF><cc:Work
         rdf:about=""><dc:format>image/svg+xml</dc:format><dc:type
           rdf:resource="http://purl.org/dc/dcmitype/StillImage" /><dc:title /></cc:Work></rdf:RDF></metadata><defs
     id="defs6" /><g
     id="g10"
     transform="matrix(1.3333333,0,0,-1.3333333,-25.810798,75.671106)"><g
       id="g12"
       transform="scale(0.1)"><path
         id="path140"
         style="fill:none;stroke:#231f20;stroke-width:2.3387301;stroke-linecap:butt;stroke-linejoin:miter;stroke-miterlimit:4;stroke-dasharray:none;stroke-opacity:1"
         d="m 344.1547,345.15883 1.546,0.957 1.942,4.14 -2.11,4.641 -3.82,1.187 -1.734,0.11 -1.465,-0.067 -1.613,-0.175 -2.664,-0.532 -2.012,-0.523 -1.774,-0.566 -0.554,-0.176 -6.258,1.355 -0.848,2.18 -0.965,2 -1.125,2.891 4.508,1.23 6.653,1.563 1.582,2.191 2.211,1.793 6.367,1.144 6.215,-0.492 7.261,6.285 -0.242,-7.867 7.488,-1.301 2.407,0.614 -6.43,-5.336 5.363,-1.309 5.649,1.738 -0.379,-2.929 -7.602,-3.36 13.52,2.11 1.551,-4.461 -3.125,-5.168 -8.778,-1.902 4.906,-3.059 6.118,1.648 -9.871,-6.746 -8.227,4.629 -4.234,-10.664 -4.336,8.164 -5.317,-10.879 -4.027,8.157 -4.774,-9.016 -3.917,3.672 8.031,-8.594 -0.696,7.961 8.727,-6.731 0.418,8.973 8.562,-6.16 1.629,9.871 5.571,-2.723 2.554,-3.281 5.301,-1.008 -5.773,-3.164 -6.547,2.16 2.219,-5.117 5.562,-1.277 -2.558,-2.395 -12.372,2.586 2.543,-5.093 7.223,-1.75 -7.164,-3.243 -8.266,3.899 5.231,-5.625 3.367,-0.637 7.891,-8.086 12.933,-4.25 17.918,-17.293 10.082,-0.156 1.871,6.184 -5.429,7.625 -10.114,7.136 -13.214,10.832 -3.622,12 6.082,9.836 8.766,2.207 14.313,-4.883 17.906,-18.437 5.441,-5 5.992,0.508 1.532,1.953 -0.77,-4.649 -5.008,-2.402 -4.199,0.828 0.031,-0.359 5.024,-6.453 1.519,-7.492 4.676,3.632 -1.641,5.403 5.547,-5.637 1.532,10.469 -1.274,1.308 5.465,-4.98 -2.266,-10.762 -13.496,-5.144 -11.289,4.597 -3.011,14.407 -1.735,-2.024 -4.621,1.652 2.266,6.903 1.605,-3.758 2.535,1.269 -3.605,9.208 -25.848,13.886 -5.238,-9.16 4.726,-7.449 9.645,-7.317 14.059,-10.859 4.457,-9.805 -2.313,-7.683 -15.933,-3.559 -1.918,-12.371 8.546,4.68 2.2,-0.403 -1.598,-1.093 -3.16,-5.137 -4.516,-4.844 -6.637,-1.289 8.915,-1.269 1.554,0.675 -5.222,-5.851 -12.508,-1.555 9.531,-2.637 -15.652,-3.582 8.265,-3.046 -16.039,-2.657 -12.148,-5.449 -7.774,-4.512 -0.765,2.168 -1.7,1.407 2.071,2.285 5.539,3.34 -9.188,-1.289 -2.75,1.093 0.512,4.551 2.594,0.723 6.738,-1.094 2.953,1.543 -2.426,0.937 -7.656,2.813 0.969,1.855 0.137,1.907 2.629,0.523 7.504,-2.918 1.57,0.586 -4.895,3.762 -1.246,2.508 1.504,1.406 1.063,2.305 3.574,-0.528 6.469,-8.086 4.144,0.684 8.301,6.719 1.367,7.121 -8.898,6.675 -1.969,5.012 2.832,8.184 -0.152,1.66 -4.375,-6.856 -0.762,-7.16 -2.34,0.813 -5.437,0.879 -5.321,-4.641 3.266,-3.758 3.847,1.106 -3.316,-4.074 -8.488,-0.696 -5.957,-3.406 0.457,-2.727 1.394,-1.687 -2.984,-0.508 -6.805,4.238 3.93,-6.804 -1.738,-0.84 -8.414,2.019 1.828,-4.609 -3.196,-1.738 -7.91,4.433 -1.551,1.739 -1.492,-0.965 -3.406,-4.59 -2.758,-0.774 -4.344,1.844 1.051,2.199 4.574,4.004 -1.332,0.606 -8.718,-2.207 -2.617,-0.098 -3.5,1.785 0.789,3.137 -0.707,2.07 2.933,0.813 10.883,0.047 -5.391,1.355 -7.273,4.426 1.64,4.59 3.368,0.176 6.91,-4.114 3.098,-0.652 -0.918,2.461 -4.227,3.887 -1.574,2.937 3.566,4.328 3.895,-1.25 6.429,-11.512 17.836,2.391 -1.41,9.192 1.25,5.925 5.395,-0.918 9.902,2.727 5.406,3.484 -13.918,-2.48 -9.726,3.32 1.66,1.348 3.348,10.742 -1.188,2.246 -10.441,-13.789 -1.387,9.523 -3.652,-10.05 -4.622,-2.743 0.833,1.543 -1.118,7.684 -1.441,-5.605 -6.352,-6.778 -2.621,-0.398 1.75,3.054 -0.785,5.555 -7.687,-9.805 -6.477,-1.531 1.891,1.836 3.457,5.235 -9.883,-3.653 -0.973,-1.711 -0.394,-6.218 -1.438,-2.747 -2.676,0.864 -2.761,-0.578 -0.094,2.734 2.387,7.305 -7.035,-5.047 -2.852,-0.52 -3.492,5.227 3.371,2.304 7.738,3.407 -2.691,0.429 -6.242,-0.918 -3.137,1.153 0.703,3.926 -0.961,1.699 3.52,0.937 6.027,-1.621 2.652,0.11 -6.719,8.836 3.313,4.699 5.883,-5.129 0.847,-3.485 7.391,-1.437 7.766,4.766 8.41,3.964 6.164,2.813 -6.563,-0.945 -6.886,-1.516 -5.688,1.035 2.613,0.938 3.653,5.019 -14.289,-3.828 -1.895,0.684 7.766,5.879 -12.285,-3.399 -3.309,0.789 -1.219,1.047 1.149,0.051 8.754,5.34 -3.328,-0.723 -7.477,-2.352 -3.684,1.551 0.766,4.571 8.219,-0.165 3.238,1.649 -2.402,1.023 -6.121,0.11 -2.953,1.855 0.109,5.07 3.496,1.141 8.559,-3.515 2.871,0.097 -0.371,1.758 -4.504,3.262 -1.196,2.07 3.231,4.16 3.949,-1.68 4.242,-4.062 0.297,3.445 2.977,3.782 5.863,0.625 -5.027,-10.911 1.089,-4.238 8.594,-7.527 8.817,-3.516 12.789,-0.535 -11.028,8.57 0.91,2.59 10.188,-2.898 -6.383,9.453 5.113,-2.16 6.965,4.511 -2.929,5.821 0.14,3.957 2.485,0.691 4.754,-0.82 2.55,-0.606 1.789,-0.332 2.536,-0.215 h 0.054 l 1.969,0.196 2.809,0.879 v 0"
         inkscape:connector-curvature="0" /><path
         d="m 343.684,551.191 v -7.132"
         style="fill:none;stroke:#231f20;stroke-width:2.3387301;stroke-linecap:butt;stroke-linejoin:miter;stroke-miterlimit:4;stroke-dasharray:none;stroke-opacity:1"
         id="path144"
         inkscape:connector-curvature="0" /><path
         d="M 343.684,521.82 V 478.391"
         style="fill:none;stroke:#231f20;stroke-width:2.3387301;stroke-linecap:butt;stroke-linejoin:miter;stroke-miterlimit:4;stroke-dasharray:none;stroke-opacity:1"
         id="path146"
         inkscape:connector-curvature="0" /><path
         id="path148"
         style="fill:none;stroke:#231f20;stroke-width:2.3387301;stroke-linecap:round;stroke-linejoin:round;stroke-miterlimit:4;stroke-dasharray:none;stroke-opacity:1"
         d="m 343.684,521.82 9.15169,-1.59209 7.54256,-4.34516 5.12119,-6.45153 1.88756,-7.91122 -0.84414,-5.45345 -2.37274,-4.84943 -8.37312,-7.31112 2,0.824 8.49273,4.72898 6.61839,6.54764 4.29808,7.98183 1.5318,9.03155 -2.71911,12.09386 -7.45302,9.86476 -11.13045,6.64521 -13.75142,2.43517 -13.75494,-2.43517 -11.13331,-6.64521 -7.45494,-9.86476 -2.71981,-12.09386 1.532,-9.03155 4.29875,-7.98183 6.61962,-6.54764 8.49463,-4.72898 2,-0.824 -8.37375,7.31112 -2.37169,4.84943 -0.84356,5.45345 1.88706,7.91122 5.12069,6.45153 7.54356,4.34516 9.15569,1.59209 v 0"
         inkscape:connector-curvature="0" /><path
         id="path150"
         style="fill:none;stroke:#231f20;stroke-width:2.3387301;stroke-linecap:butt;stroke-linejoin:miter;stroke-miterlimit:4;stroke-dasharray:none;stroke-opacity:1"
         d="m 359.844,486.105 5.05739,4.09612 3.79523,5.04788 2.38543,5.81962 0.82795,6.41138 -2.22908,10.06736 -6.06729,8.21251 -8.97561,5.53258 -10.95402,2.02755 -10.96028,-2.02755 -8.97672,-5.53258 -6.06597,-8.21251 -2.22803,-10.06736 0.82622,-6.41138 2.38228,-5.81962 3.79378,-5.04788 5.06072,-4.09612"
         inkscape:connector-curvature="0" /><path
         d="m 334.895,551.191 v -8.148"
         style="fill:none;stroke:#231f20;stroke-width:2.3387301;stroke-linecap:butt;stroke-linejoin:miter;stroke-miterlimit:4;stroke-dasharray:none;stroke-opacity:1"
         id="path152"
         inkscape:connector-curvature="0" /><path
         d="M 334.895,520.367 V 478.215"
         style="fill:none;stroke:#231f20;stroke-width:2.3387301;stroke-linecap:butt;stroke-linejoin:miter;stroke-miterlimit:4;stroke-dasharray:none;stroke-opacity:1"
         id="path154"
         inkscape:connector-curvature="0" /><path
         d="M 326.113,551.191 V 539.84"
         style="fill:none;stroke:#231f20;stroke-width:2.3387301;stroke-linecap:butt;stroke-linejoin:miter;stroke-miterlimit:4;stroke-dasharray:none;stroke-opacity:1"
         id="path156"
         inkscape:connector-curvature="0" /><path
         d="m 326.113,515.105 v -36.89"
         style="fill:none;stroke:#231f20;stroke-width:2.3387301;stroke-linecap:butt;stroke-linejoin:miter;stroke-miterlimit:4;stroke-dasharray:none;stroke-opacity:1"
         id="path158"
         inkscape:connector-curvature="0" /><path
         d="M 317.328,551.191 V 533.738"
         style="fill:none;stroke:#231f20;stroke-width:2.3387301;stroke-linecap:butt;stroke-linejoin:miter;stroke-miterlimit:4;stroke-dasharray:none;stroke-opacity:1"
         id="path160"
         inkscape:connector-curvature="0" /><path
         d="m 317.328,492.695 v -14.48"
         style="fill:none;stroke:#231f20;stroke-width:2.3387301;stroke-linecap:butt;stroke-linejoin:miter;stroke-miterlimit:4;stroke-dasharray:none;stroke-opacity:1"
         id="path162"
         inkscape:connector-curvature="0" /><path
         d="M 308.547,551.191 V 478.367"
         style="fill:none;stroke:#231f20;stroke-width:2.3387301;stroke-linecap:butt;stroke-linejoin:miter;stroke-miterlimit:4;stroke-dasharray:none;stroke-opacity:1"
         id="path164"
         inkscape:connector-curvature="0" /><path
         d="M 299.762,551.191 V 478.367"
         style="fill:none;stroke:#231f20;stroke-width:2.3387301;stroke-linecap:butt;stroke-linejoin:miter;stroke-miterlimit:4;stroke-dasharray:none;stroke-opacity:1"
         id="path166"
         inkscape:connector-curvature="0" /><path
         d="M 290.977,551.191 V 478.367"
         style="fill:none;stroke:#231f20;stroke-width:2.3387301;stroke-linecap:butt;stroke-linejoin:miter;stroke-miterlimit:4;stroke-dasharray:none;stroke-opacity:1"
         id="path168"
         inkscape:connector-curvature="0" /><path
         d="M 282.191,551.191 V 516.074"
         style="fill:none;stroke:#231f20;stroke-width:2.3387301;stroke-linecap:butt;stroke-linejoin:miter;stroke-miterlimit:4;stroke-dasharray:none;stroke-opacity:1"
         id="path170"
         inkscape:connector-curvature="0" /><path
         d="M 273.402,551.191 V 526.215"
         style="fill:none;stroke:#231f20;stroke-width:2.3387301;stroke-linecap:butt;stroke-linejoin:miter;stroke-miterlimit:4;stroke-dasharray:none;stroke-opacity:1"
         id="path172"
         inkscape:connector-curvature="0" /><path
         d="M 264.617,551.191 V 536.363"
         style="fill:none;stroke:#231f20;stroke-width:2.3387301;stroke-linecap:butt;stroke-linejoin:miter;stroke-miterlimit:4;stroke-dasharray:none;stroke-opacity:1"
         id="path174"
         inkscape:connector-curvature="0" /><path
         d="M 264.617,523.07 V 504.633"
         style="fill:none;stroke:#231f20;stroke-width:2.3387301;stroke-linecap:butt;stroke-linejoin:miter;stroke-miterlimit:4;stroke-dasharray:none;stroke-opacity:1"
         id="path176"
         inkscape:connector-curvature="0" /><path
         d="m 255.84,551.191 v -4.687"
         style="fill:none;stroke:#231f20;stroke-width:2.3387301;stroke-linecap:butt;stroke-linejoin:miter;stroke-miterlimit:4;stroke-dasharray:none;stroke-opacity:1"
         id="path178"
         inkscape:connector-curvature="0" /><path
         d="M 255.84,533.23 V 494.824"
         style="fill:none;stroke:#231f20;stroke-width:2.3387301;stroke-linecap:butt;stroke-linejoin:miter;stroke-miterlimit:4;stroke-dasharray:none;stroke-opacity:1"
         id="path180"
         inkscape:connector-curvature="0" /><path
         d="M 247.055,551.191 V 536.605"
         style="fill:none;stroke:#231f20;stroke-width:2.3387301;stroke-linecap:butt;stroke-linejoin:miter;stroke-miterlimit:4;stroke-dasharray:none;stroke-opacity:1"
         id="path182"
         inkscape:connector-curvature="0" /><path
         d="M 247.055,523.391 V 504.734"
         style="fill:none;stroke:#231f20;stroke-width:2.3387301;stroke-linecap:butt;stroke-linejoin:miter;stroke-miterlimit:4;stroke-dasharray:none;stroke-opacity:1"
         id="path184"
         inkscape:connector-curvature="0" /><path
         d="M 238.27,551.191 V 526.73"
         style="fill:none;stroke:#231f20;stroke-width:2.3387301;stroke-linecap:butt;stroke-linejoin:miter;stroke-miterlimit:4;stroke-dasharray:none;stroke-opacity:1"
         id="path186"
         inkscape:connector-curvature="0" /><path
         d="m 282.191,511.875 v -33.66"
         style="fill:none;stroke:#231f20;stroke-width:2.3387301;stroke-linecap:butt;stroke-linejoin:miter;stroke-miterlimit:4;stroke-dasharray:none;stroke-opacity:1"
         id="path188"
         inkscape:connector-curvature="0" /><path
         d="M 273.402,501.746 V 478.215"
         style="fill:none;stroke:#231f20;stroke-width:2.3387301;stroke-linecap:butt;stroke-linejoin:miter;stroke-miterlimit:4;stroke-dasharray:none;stroke-opacity:1"
         id="path190"
         inkscape:connector-curvature="0" /><path
         d="m 264.617,491.605 v -13.39"
         style="fill:none;stroke:#231f20;stroke-width:2.3387301;stroke-linecap:butt;stroke-linejoin:miter;stroke-miterlimit:4;stroke-dasharray:none;stroke-opacity:1"
         id="path192"
         inkscape:connector-curvature="0" /><path
         d="m 255.84,481.531 v -3.316"
         style="fill:none;stroke:#231f20;stroke-width:2.3387301;stroke-linecap:butt;stroke-linejoin:miter;stroke-miterlimit:4;stroke-dasharray:none;stroke-opacity:1"
         id="path194"
         inkscape:connector-curvature="0" /><path
         d="m 431.52,551.191 v -4.687"
         style="fill:none;stroke:#231f20;stroke-width:2.3387301;stroke-linecap:butt;stroke-linejoin:miter;stroke-miterlimit:4;stroke-dasharray:none;stroke-opacity:1"
         id="path196"
         inkscape:connector-curvature="0" /><path
         d="m 431.52,481.531 v -3.316"
         style="fill:none;stroke:#231f20;stroke-width:2.3387301;stroke-linecap:butt;stroke-linejoin:miter;stroke-miterlimit:4;stroke-dasharray:none;stroke-opacity:1"
         id="path198"
         inkscape:connector-curvature="0" /><path
         d="M 247.055,491.363 V 478.215"
         style="fill:none;stroke:#231f20;stroke-width:2.3387301;stroke-linecap:butt;stroke-linejoin:miter;stroke-miterlimit:4;stroke-dasharray:none;stroke-opacity:1"
         id="path200"
         inkscape:connector-curvature="0" /><path
         d="M 238.27,501.238 V 478.215"
         style="fill:none;stroke:#231f20;stroke-width:2.3387301;stroke-linecap:butt;stroke-linejoin:miter;stroke-miterlimit:4;stroke-dasharray:none;stroke-opacity:1"
         id="path202"
         inkscape:connector-curvature="0" /><path
         d="M 229.492,551.191 V 516.852"
         style="fill:none;stroke:#231f20;stroke-width:2.3387301;stroke-linecap:butt;stroke-linejoin:miter;stroke-miterlimit:4;stroke-dasharray:none;stroke-opacity:1"
         id="path204"
         inkscape:connector-curvature="0" /><path
         d="M 220.703,551.191 V 478.367"
         style="fill:none;stroke:#231f20;stroke-width:2.3387301;stroke-linecap:butt;stroke-linejoin:miter;stroke-miterlimit:4;stroke-dasharray:none;stroke-opacity:1"
         id="path206"
         inkscape:connector-curvature="0" /><path
         d="m 352.461,551.191 v -8.148"
         style="fill:none;stroke:#231f20;stroke-width:2.3387301;stroke-linecap:butt;stroke-linejoin:miter;stroke-miterlimit:4;stroke-dasharray:none;stroke-opacity:1"
         id="path208"
         inkscape:connector-curvature="0" /><path
         d="M 352.461,520.367 V 478.215"
         style="fill:none;stroke:#231f20;stroke-width:2.3387301;stroke-linecap:butt;stroke-linejoin:miter;stroke-miterlimit:4;stroke-dasharray:none;stroke-opacity:1"
         id="path210"
         inkscape:connector-curvature="0" /><path
         d="M 361.25,551.191 V 539.945"
         style="fill:none;stroke:#231f20;stroke-width:2.3387301;stroke-linecap:butt;stroke-linejoin:miter;stroke-miterlimit:4;stroke-dasharray:none;stroke-opacity:1"
         id="path212"
         inkscape:connector-curvature="0" /><path
         d="m 361.25,515.105 v -36.89"
         style="fill:none;stroke:#231f20;stroke-width:2.3387301;stroke-linecap:butt;stroke-linejoin:miter;stroke-miterlimit:4;stroke-dasharray:none;stroke-opacity:1"
         id="path214"
         inkscape:connector-curvature="0" /><path
         d="M 370.035,551.191 V 533.586"
         style="fill:none;stroke:#231f20;stroke-width:2.3387301;stroke-linecap:butt;stroke-linejoin:miter;stroke-miterlimit:4;stroke-dasharray:none;stroke-opacity:1"
         id="path216"
         inkscape:connector-curvature="0" /><path
         d="m 370.035,492.695 v -14.48"
         style="fill:none;stroke:#231f20;stroke-width:2.3387301;stroke-linecap:butt;stroke-linejoin:miter;stroke-miterlimit:4;stroke-dasharray:none;stroke-opacity:1"
         id="path218"
         inkscape:connector-curvature="0" /><path
         d="M 378.816,551.191 V 478.367"
         style="fill:none;stroke:#231f20;stroke-width:2.3387301;stroke-linecap:butt;stroke-linejoin:miter;stroke-miterlimit:4;stroke-dasharray:none;stroke-opacity:1"
         id="path220"
         inkscape:connector-curvature="0" /><path
         d="M 387.598,551.191 V 478.367"
         style="fill:none;stroke:#231f20;stroke-width:2.3387301;stroke-linecap:butt;stroke-linejoin:miter;stroke-miterlimit:4;stroke-dasharray:none;stroke-opacity:1"
         id="path222"
         inkscape:connector-curvature="0" /><path
         d="M 396.383,551.191 V 478.367"
         style="fill:none;stroke:#231f20;stroke-width:2.3387301;stroke-linecap:butt;stroke-linejoin:miter;stroke-miterlimit:4;stroke-dasharray:none;stroke-opacity:1"
         id="path224"
         inkscape:connector-curvature="0" /><path
         d="M 466.656,551.191 V 478.367"
         style="fill:none;stroke:#231f20;stroke-width:2.3387301;stroke-linecap:butt;stroke-linejoin:miter;stroke-miterlimit:4;stroke-dasharray:none;stroke-opacity:1"
         id="path226"
         inkscape:connector-curvature="0" /><path
         id="path358"
         style="fill:none;stroke:#231f20;stroke-width:2.34000015;stroke-linecap:butt;stroke-linejoin:miter;stroke-miterlimit:4;stroke-dasharray:none;stroke-opacity:1"
         d="m 466.98,320.332 8.1033,30.39939 3.85183,34.81098 0.74851,40.1598 -1.20664,46.44583 -257.559,-151.816 -8.08238,30.29811 -3.85612,34.66901 -0.76388,39.97246 L 209.41,471.48 m 0,0 257.57,-151.148"
         inkscape:connector-curvature="0"
         sodipodi:nodetypes="cccccccccccc" /><path
         d="M 474.965,551.191 H 213.344 l -2.758,-72.976 h 267.348 z"
         style="fill:none;stroke:#231f20;stroke-width:2.3387301;stroke-linecap:butt;stroke-linejoin:miter;stroke-miterlimit:4;stroke-dasharray:none;stroke-opacity:1"
         id="path422"
         inkscape:connector-curvature="0" /><path
         d="m 238.727,514.055 17.113,19.175 16.855,-19.507 -16.797,-18.899 z m 17.113,32.449 -28.887,-32.52 28.887,-32.504 28.168,32.504 z"
         style="fill:none;stroke:#231f20;stroke-width:2.34000015;stroke-linecap:butt;stroke-linejoin:miter;stroke-miterlimit:4;stroke-dasharray:none;stroke-opacity:1"
         id="path424"
         inkscape:connector-curvature="0" /><path
         d="M 229.492,511.137 V 478.215"
         style="fill:none;stroke:#231f20;stroke-width:2.3387301;stroke-linecap:butt;stroke-linejoin:miter;stroke-miterlimit:4;stroke-dasharray:none;stroke-opacity:1"
         id="path426"
         inkscape:connector-curvature="0" /><path
         d="M 457.875,551.191 V 516.074"
         style="fill:none;stroke:#231f20;stroke-width:2.3387301;stroke-linecap:butt;stroke-linejoin:miter;stroke-miterlimit:4;stroke-dasharray:none;stroke-opacity:1"
         id="path460"
         inkscape:connector-curvature="0" /><path
         d="M 449.094,551.191 V 526.215"
         style="fill:none;stroke:#231f20;stroke-width:2.3387301;stroke-linecap:butt;stroke-linejoin:miter;stroke-miterlimit:4;stroke-dasharray:none;stroke-opacity:1"
         id="path462"
         inkscape:connector-curvature="0" /><path
         d="M 440.309,551.191 V 536.363"
         style="fill:none;stroke:#231f20;stroke-width:2.3387301;stroke-linecap:butt;stroke-linejoin:miter;stroke-miterlimit:4;stroke-dasharray:none;stroke-opacity:1"
         id="path464"
         inkscape:connector-curvature="0" /><path
         d="M 440.309,523.07 V 504.633"
         style="fill:none;stroke:#231f20;stroke-width:2.3387301;stroke-linecap:butt;stroke-linejoin:miter;stroke-miterlimit:4;stroke-dasharray:none;stroke-opacity:1"
         id="path466"
         inkscape:connector-curvature="0" /><path
         d="M 431.52,533.23 V 494.824"
         style="fill:none;stroke:#231f20;stroke-width:2.3387301;stroke-linecap:butt;stroke-linejoin:miter;stroke-miterlimit:4;stroke-dasharray:none;stroke-opacity:1"
         id="path468"
         inkscape:connector-curvature="0" /><path
         d="M 422.734,551.191 V 536.605"
         style="fill:none;stroke:#231f20;stroke-width:2.3387301;stroke-linecap:butt;stroke-linejoin:miter;stroke-miterlimit:4;stroke-dasharray:none;stroke-opacity:1"
         id="path470"
         inkscape:connector-curvature="0" /><path
         d="M 422.734,523.391 V 504.734"
         style="fill:none;stroke:#231f20;stroke-width:2.3387301;stroke-linecap:butt;stroke-linejoin:miter;stroke-miterlimit:4;stroke-dasharray:none;stroke-opacity:1"
         id="path472"
         inkscape:connector-curvature="0" /><path
         d="M 413.949,551.191 V 526.73"
         style="fill:none;stroke:#231f20;stroke-width:2.3387301;stroke-linecap:butt;stroke-linejoin:miter;stroke-miterlimit:4;stroke-dasharray:none;stroke-opacity:1"
         id="path474"
         inkscape:connector-curvature="0" /><path
         d="m 457.875,511.875 v -33.66"
         style="fill:none;stroke:#231f20;stroke-width:2.3387301;stroke-linecap:butt;stroke-linejoin:miter;stroke-miterlimit:4;stroke-dasharray:none;stroke-opacity:1"
         id="path476"
         inkscape:connector-curvature="0" /><path
         d="M 449.094,501.746 V 478.215"
         style="fill:none;stroke:#231f20;stroke-width:2.3387301;stroke-linecap:butt;stroke-linejoin:miter;stroke-miterlimit:4;stroke-dasharray:none;stroke-opacity:1"
         id="path478"
         inkscape:connector-curvature="0" /><path
         d="m 440.309,491.605 v -13.39"
         style="fill:none;stroke:#231f20;stroke-width:2.3387301;stroke-linecap:butt;stroke-linejoin:miter;stroke-miterlimit:4;stroke-dasharray:none;stroke-opacity:1"
         id="path480"
         inkscape:connector-curvature="0" /><path
         d="M 422.734,491.363 V 478.215"
         style="fill:none;stroke:#231f20;stroke-width:2.3387301;stroke-linecap:butt;stroke-linejoin:miter;stroke-miterlimit:4;stroke-dasharray:none;stroke-opacity:1"
         id="path482"
         inkscape:connector-curvature="0" /><path
         d="M 413.949,501.238 V 478.215"
         style="fill:none;stroke:#231f20;stroke-width:2.3387301;stroke-linecap:butt;stroke-linejoin:miter;stroke-miterlimit:4;stroke-dasharray:none;stroke-opacity:1"
         id="path484"
         inkscape:connector-curvature="0" /><path
         d="M 405.168,551.191 V 516.852"
         style="fill:none;stroke:#231f20;stroke-width:2.3387301;stroke-linecap:butt;stroke-linejoin:miter;stroke-miterlimit:4;stroke-dasharray:none;stroke-opacity:1"
         id="path486"
         inkscape:connector-curvature="0" /><path
         d="m 414.402,514.055 17.118,19.175 16.855,-19.507 -16.797,-18.899 z m 17.118,32.449 -28.887,-32.52 28.887,-32.504 28.171,32.504 z"
         style="fill:none;stroke:#231f20;stroke-width:2.3387301;stroke-linecap:butt;stroke-linejoin:miter;stroke-miterlimit:4;stroke-dasharray:none;stroke-opacity:1"
         id="path488"
         inkscape:connector-curvature="0" /><path
         d="M 405.168,511.137 V 478.215"
         style="fill:none;stroke:#231f20;stroke-width:2.3387301;stroke-linecap:butt;stroke-linejoin:miter;stroke-miterlimit:4;stroke-dasharray:none;stroke-opacity:1"
         id="path490"
         inkscape:connector-curvature="0" /><path
         id="path1993"
         d="m 199.73554,565.77954 -4.98396,-127.17867 1.48011,-57.15458 10.35922,-62.76471 18.89035,-33.81982 29.24958,-33.81982 36.86665,-25.89806 52.1008,-28.03084 60.32724,30.77299 42.65563,35.34324 22.24187,29.85893 17.06225,44.78841 7.00771,49.96803 0.91405,35.9526 -2.43747,67.03027 -3.04683,74.95203 m 0,0 h -288.6872"
         style="fill:none;stroke:#000000;stroke-width:2.34000015;stroke-linecap:butt;stroke-linejoin:miter;stroke-miterlimit:4;stroke-dasharray:none;stroke-opacity:1"
         inkscape:connector-curvature="0"
         sodipodi:nodetypes="cccccccccccccccccc" /><path
         style="fill:none;stroke:#000000;stroke-width:3;stroke-linecap:butt;stroke-linejoin:miter;stroke-miterlimit:4;stroke-dasharray:none;stroke-opacity:1"
         d="M 200.26481,566.03331 H 488.238"
         id="path878"
         inkscape:connector-curvature="0" /></g></g></svg>