<?xml version="1.0" encoding="UTF-8" standalone="no"?>
<svg
   xmlns:dc="http://purl.org/dc/elements/1.1/"
   xmlns:cc="http://creativecommons.org/ns#"
   xmlns:rdf="http://www.w3.org/1999/02/22-rdf-syntax-ns#"
   xmlns:svg="http://www.w3.org/2000/svg"
   xmlns="http://www.w3.org/2000/svg"
   xmlns:sodipodi="http://sodipodi.sourceforge.net/DTD/sodipodi-0.dtd"
   xmlns:inkscape="http://www.inkscape.org/namespaces/inkscape"
   inkscape:version="0.92.5 (2060ec1f9f, 2020-04-08)"
   sodipodi:docname="sMCRT.svg"
   width="210mm"
   height="297mm"
   viewBox="0 0 210 297"
   version="1.1"
   id="svg8">
  <sodipodi:namedview
     pagecolor="#ffffff"
     bordercolor="#666666"
     borderopacity="1"
     objecttolerance="10"
     gridtolerance="10"
     guidetolerance="10"
     inkscape:pageopacity="0"
     inkscape:pageshadow="2"
     inkscape:window-width="1920"
     inkscape:window-height="1016"
     id="namedview11"
     showgrid="false"
     inkscape:zoom="1.1893044"
     inkscape:cx="455.06867"
     inkscape:cy="718.13276"
     inkscape:window-x="0"
     inkscape:window-y="27"
     inkscape:window-maximized="1"
     inkscape:current-layer="flowRoot10" />
  <defs
     id="defs2" />
  <metadata
     id="metadata5">
    <rdf:RDF>
      <cc:Work
         rdf:about="">
        <dc:format>image/svg+xml</dc:format>
        <dc:type
           rdf:resource="http://purl.org/dc/dcmitype/StillImage" />
        <dc:title />
      </cc:Work>
    </rdf:RDF>
  </metadata>
  <g
     id="layer1">
    <g
       aria-label="SignedMCRT"
       transform="scale(0.26458333)"
       style="font-style:normal;font-variant:normal;font-weight:normal;font-stretch:normal;font-size:40px;line-height:1.25;font-family:Comfortaa;-inkscape-font-specification:Comfortaa;letter-spacing:0px;word-spacing:0px;fill:#000000;fill-opacity:1;stroke:none"
       id="flowRoot10">
      <path
         id="path13"
         style="font-style:normal;font-variant:normal;font-weight:normal;font-stretch:normal;font-size:53.33333588px;font-family:Clarendon;-inkscape-font-specification:Clarendon;fill:none;stroke:#000000;stroke-width:1.89489722;stroke-miterlimit:4;stroke-dasharray:none;stroke-opacity:1"
         d="m 72.31111,353.30618 v 24.25468 h -9.39869 l -0.101,-0.30318 v -0.50532 l -0.70742,-3.6382 -1.01063,-2.82971 -0.60636,-1.0106 -0.707426,-1.21274 -6.46791,-5.55837 -8.48914,-2.52653 h -0.606367 -0.505312 l -9.904003,2.52653 -2.804447,2.8297 -0.93481,3.63823 1.162197,3.78977 3.486611,2.47601 11.217792,3.03183 3.233964,0.60637 3.436074,0.70744 15.361307,5.9626 5.30569,5.65943 1.76859,8.89338 -1.79385,9.72713 -5.38149,7.15009 -8.716541,4.39615 -11.798881,1.46539 h -1.010606 l -1.010624,-0.10099 -10.510351,-2.02123 -9.095507,-5.35623 -2.122285,5.35623 h -7.983846 v -25.06316 h 9.499764 l 0.808477,3.53712 0.707441,2.32442 0.606367,1.71804 0.808477,1.31379 0.404257,0.70743 0.606367,0.70744 7.478515,5.4573 10.409315,2.12229 9.196562,-2.42547 3.638203,-6.2658 -1.11168,-4.14352 -4.749863,-2.72865 -3.537148,-1.01061 -4.446698,-1.11167 -10.207167,-2.52653 -14.249628,-5.65943 -4.244588,-5.38151 -1.414844,-8.46386 1.84436,-9.32291 5.5331,-7.15008 8.741786,-4.54775 11.268329,-1.51592 10.914608,1.61699 8.792319,5.05305 1.51592,-4.64881 h 7.88277 l -5e-5,-5e-5"
         inkscape:connector-curvature="0" />
      <path
         id="path15"
         style="font-style:normal;font-variant:normal;font-weight:normal;font-stretch:normal;font-size:53.33333588px;font-family:Clarendon;-inkscape-font-specification:Clarendon;fill:none;stroke:#000000;stroke-width:1.89489722;stroke-miterlimit:4;stroke-dasharray:none;stroke-opacity:1"
         d="m 103.74103,372.50779 v 35.47248 l 0.80848,3.6382 2.82972,1.01063 4.24457,-0.101 v 8.18596 H 80.80013 v -8.18596 h 4.34563 l 2.82972,-0.90955 0.80848,-3.53713 v -22.83984 l -0.80848,-3.33502 -2.82972,-1.01061 -4.34563,-0.10099 v -8.28703 h 22.9409 v -1.4e-4 m -8.0849,-21.52603 5.96261,2.52654 2.52653,5.9626 -2.52653,6.06367 -5.96261,2.42547 -5.96262,-2.52652 -2.52652,-5.96262 2.52652,-5.9626 5.96262,-2.42546 v -0.101"
         inkscape:connector-curvature="0" />
      <path
         id="path17"
         style="font-style:normal;font-variant:normal;font-weight:normal;font-stretch:normal;font-size:53.33333588px;font-family:Clarendon;-inkscape-font-specification:Clarendon;fill:none;stroke:#000000;stroke-width:1.89489722;stroke-miterlimit:4;stroke-dasharray:none;stroke-opacity:1"
         d="m 156.69706,375.33752 0.60637,-0.60637 0.60636,-0.80849 4.4467,-3.33502 5.35625,-1.01061 6.36686,2.22334 2.52652,5.76049 -1.8191,5.05307 -4.64881,2.02121 -3.94139,-1.41485 -1.61699,-3.53715 v -1.11167 l 0.30319,-1.01061 0.50531,-1.01061 0.90955,-1.11168 -0.70742,-0.20212 -0.50532,-0.101 h -0.10099 -0.101 l -2.62758,0.80849 -2.42547,2.3244 3.13289,5.15412 0.90955,6.56898 -1.54119,7.70591 -4.62353,5.93735 -7.30169,3.7898 -9.57554,1.26327 -6.06367,-0.40426 -5.15412,-1.41484 -2.02123,1.51591 -0.60637,2.02122 1.41487,2.82972 4.34562,0.80848 h 0.20213 0.20213 0.101 l 0.20212,-0.101 20.51541,-0.60637 0.40426,0.101 0.50529,-0.101 h 0.40426 0.40424 l 11.62203,2.12229 3.94139,3.51187 1.3138,6.29106 -1.51591,6.84689 -4.54776,4.3709 -13.13796,4.04246 -6.36686,0.40424 -5.76049,0.101 -19.30267,-2.12229 -4.24459,-2.77919 -1.41484,-4.29509 1.51591,-4.34562 5.25518,-3.13291 -4.95199,-3.03184 -1.61697,-5.4573 2.02121,-6.06367 4.95201,-3.94139 0.80847,-0.50529 1.01063,-0.60637 -5.55838,-5.65943 -1.71803,-8.89338 1.56644,-8.0091 4.69934,-6.03842 7.45326,-3.78979 9.82821,-1.26325 5.55837,0.40424 4.85094,1.41486 2.3244,1.11166 2.42546,1.41486 -7e-5,-0.10119 m -26.37697,50.02529 -2.12229,1.8191 -0.70742,2.3244 3.33502,3.94138 10.61143,1.31381 13.44113,-1.11168 2.95604,-1.56645 0.98534,-2.47599 -2.42546,-3.43609 -9.80293,-0.80848 h -16.27086 v 0 m 2.22336,-35.77566 2.22334,9.39869 6.06367,3.43608 5.86154,-3.43608 2.32442,-9.0955 -2.32442,-9.09551 -5.9626,-3.43609 -5.96261,3.33501 -2.22334,8.99446 v -0.101"
         inkscape:connector-curvature="0" />
      <path
         id="path19"
         style="font-style:normal;font-variant:normal;font-weight:normal;font-stretch:normal;font-size:53.33333588px;font-family:Clarendon;-inkscape-font-specification:Clarendon;fill:none;stroke:#000000;stroke-width:1.89489722;stroke-miterlimit:4;stroke-dasharray:none;stroke-opacity:1"
         d="m 202.17452,372.50779 -0.30319,7.37748 3.23397,-3.33502 3.13289,-2.52654 4.74988,-2.12228 5.65943,-0.70742 6.67002,0.9348 5.05307,2.80445 3.18343,4.49722 1.06114,6.01315 v 22.53664 l 0.80849,3.6382 2.93078,1.01063 4.24457,-0.101 v 8.18596 h -29.30775 v -8.18596 h 2.72866 l 2.8297,-0.90955 0.8085,-3.53713 v -17.78677 l -1.71805,-7.37747 -5.55836,-2.22335 -7.2764,2.93078 -2.22334,9.19656 v 15.15918 l 0.80847,3.6382 2.82973,1.01062 2.52652,-0.10099 v 8.18595 h -28.80243 v -8.18595 h 4.04244 l 2.82972,-0.90956 0.80848,-3.53712 v -22.83984 l -0.80848,-3.33502 -2.82972,-1.01061 -4.04244,-0.101 V 372.508 h 21.93027 v -2.1e-4"
         inkscape:connector-curvature="0" />
      <path
         id="path21"
         style="font-style:normal;font-variant:normal;font-weight:normal;font-stretch:normal;font-size:53.33333588px;font-family:Clarendon;-inkscape-font-specification:Clarendon;fill:none;stroke:#000000;stroke-width:1.89489722;stroke-miterlimit:4;stroke-dasharray:none;stroke-opacity:1"
         d="m 295.35272,398.48053 h -34.76506 l 3.6382,11.62203 3.68872,2.80444 5.00255,0.93483 7.57959,-2.42547 4.54775,-7.2764 9.70188,-0.101 -2.29916,7.55433 -4.87619,5.88682 -6.94796,3.71398 -8.5144,1.23801 -11.52098,-1.69279 -8.48914,-5.0783 -5.15414,-8.26177 -1.71803,-11.24305 1.71803,-10.13139 5.15414,-7.95855 8.05963,-5.15414 10.23244,-1.71803 10.51035,1.69277 7.88279,5.07832 5.00253,8.11016 1.66751,10.7883 v 0.30318 0.30319 l -0.101,0.50529 v 0.60637 l -5e-5,-0.10119 m -15.36131,-7.68065 -2.42547,-7.88277 -2.98132,-2.72865 -4.29508,-0.90955 -6.87217,3.03184 -2.72865,8.59019 19.30269,-0.101 v -6e-5"
         inkscape:connector-curvature="0" />
      <path
         id="path23"
         style="font-style:normal;font-variant:normal;font-weight:normal;font-stretch:normal;font-size:53.33333588px;font-family:Clarendon;-inkscape-font-specification:Clarendon;fill:none;stroke:#000000;stroke-width:1.89489722;stroke-miterlimit:4;stroke-dasharray:none;stroke-opacity:1"
         d="m 352.55332,353.40723 v 54.57304 l 0.80849,3.6382 2.82971,1.01063 4.04246,-0.101 v 8.18596 h -21.82922 v -5.55836 l -6.97322,5.55836 -8.99445,1.71804 -8.28703,-1.69279 -6.46791,-5.0783 -4.16878,-7.95859 -1.38958,-10.13137 1.49064,-10.43457 4.47198,-8.46386 6.77109,-5.60892 8.38808,-1.86962 5.15412,0.70742 4.34563,2.12229 2.22334,1.71804 2.22336,2.32442 v -11.92523 l -0.8085,-3.43608 -2.8297,-1.0106 -4.34565,-0.101 v -8.18596 h 23.34514 v -1.5e-4 m -34.46186,44.36587 2.42547,12.12735 3.08236,3.03181 4.19405,1.01063 4.19403,-1.13694 3.28448,-3.41082 2.93078,-11.82416 -2.62759,-12.32947 -3.08238,-3.18342 -4.19403,-1.06115 -4.24457,1.13694 -3.23394,3.41082 -2.72866,12.32947 v -0.101"
         inkscape:connector-curvature="0" />
      <path
         id="path25"
         style="font-style:normal;font-weight:bold;font-size:53.33333588px;baseline-shift:baseline;fill:none;stroke:#000000;stroke-width:1.89489722;stroke-miterlimit:4;stroke-dasharray:none;stroke-opacity:1"
         d="m 399.24356,353.30618 16.77616,41.33401 17.07933,-41.33401 h 31.73322 v 8.38808 h -5.25518 l -4.24457,1.21273 -1.21273,3.63821 v 41.13189 l 1.21273,3.73927 4.24457,1.11166 5.25518,-0.10099 v 8.28701 h -38.10008 v -8.28701 h 5.2552 l 4.24457,-1.01061 1.21273,-3.6382 v -38.3022 l -21.42497,51.23802 h -7.57959 l -20.91967,-51.94545 v 38.90855 l 1.21273,3.73928 4.24457,1.11166 4.74989,-0.101 v 8.28701 h -31.53109 v -8.28701 h 5.25517 l 4.24457,-1.0106 1.21274,-3.63821 v -41.33403 l -1.21274,-3.53713 -4.24457,-1.11168 -5.25517,-0.101 v -8.38808 h 33.047 v -1.7e-4"
         inkscape:connector-curvature="0" />
      <path
         id="path27"
         style="font-style:normal;font-weight:bold;font-size:53.33333588px;baseline-shift:baseline;fill:none;stroke:#000000;stroke-width:1.89489722;stroke-miterlimit:4;stroke-dasharray:none;stroke-opacity:1"
         d="m 538.60685,352.59875 v 27.69076 h -9.80295 l -1.66751,-7.90805 -3.78979,-5.93734 -5.58364,-3.78979 -7.25112,-1.26325 -8.1607,1.71802 -6.29106,5.15412 -4.0172,8.08491 -1.33905,10.51037 1.26325,11.09145 3.78982,8.21122 6.24052,5.00253 8.41334,1.66751 7.07428,-1.18748 5.65943,-3.56239 4.11824,-5.91208 2.45074,-8.03436 10.30825,-0.101 -3.3603,12.25368 -6.84689,9.07025 -9.82821,5.60887 -12.5063,1.86964 -13.84539,-2.476 -11.21779,-7.42798 -7.42802,-11.21781 -2.47598,-13.84537 2.47598,-14.72968 7.42802,-11.64729 11.36938,-7.65541 14.30017,-2.55178 7.2764,0.70744 6.36686,2.12229 3.23394,1.92015 3.33502,2.32442 2.22336,-5.76049 h 8.0849 v -8e-5"
         inkscape:connector-curvature="0" />
      <path
         id="path29"
         style="font-style:normal;font-weight:bold;font-size:53.33333588px;baseline-shift:baseline;fill:none;stroke:#000000;stroke-width:1.89489722;stroke-miterlimit:4;stroke-dasharray:none;stroke-opacity:1"
         d="m 575.89835,389.48607 v 18.19102 l 1.21274,3.73927 4.24457,1.11166 5.25517,-0.10099 v 8.28701 h -38.10005 v -8.28701 h 5.25517 l 4.24457,-1.01061 1.21274,-3.6382 v -41.33404 l -1.21274,-3.53713 -4.24457,-1.11168 -5.25517,-0.101 v -8.38808 h 48.91361 l 8.59019,1.16216 6.36686,3.28454 3.94138,5.25517 1.31381,7.07428 -0.93483,5.6089 -2.80445,4.49723 -11.11671,5.55836 7.68064,4.4467 2.32441,6.87215 v 10.00505 0.60637 l 0.101,0.60637 v 0.60636 0.60637 l 0.60637,2.72865 2.32441,1.21274 2.22334,-1.51592 0.70742,-4.74986 v -5.76049 h 7.98385 v 5.65941 l -0.90955,6.92269 -2.72865,4.80042 -4.64883,2.80443 -6.67004,0.93483 -11.21779,-3.1329 -3.03184,-3.86559 -1.21273,-5.33097 -0.60637,-11.31886 -2.12228,-7.47852 -7.17533,-1.8191 -10.51037,-0.101 5e-5,-1.9e-4 m 0,-8.69125 h 11.82416 l 9.39869,-2.32441 3.03184,-7.47853 -0.78324,-4.19404 -2.34965,-2.67811 -10.61143,-2.02123 -10.51037,-0.101 v 18.79738 -6e-5"
         inkscape:connector-curvature="0" />
      <path
         id="path31"
         style="font-style:normal;font-weight:bold;font-size:53.33333588px;baseline-shift:baseline;fill:none;stroke:#000000;stroke-width:1.89489722;stroke-miterlimit:4;stroke-dasharray:none;stroke-opacity:1"
         d="m 669.8852,361.99744 v 45.67965 l 1.21273,3.73927 4.24457,1.01061 6.46791,-0.101 v 8.38807 h -40.72765 v -8.38807 h 6.67004 l 4.24457,-0.90955 1.21273,-3.6382 V 361.9975 l -7.93331,1.1369 -4.19403,3.20873 -2.82972,13.5422 -9.19657,-0.101 v -26.47802 h 64.78023 v 26.47802 h -9.29763 l 0.10099,-1.21273 v -0.70742 l -3.03183,-11.82416 -3.68874,-3.03184 -5.20464,-1.0106 h -0.70742 -0.60637 l -0.80849,0.10099 h -0.70743 l 6e-5,-0.10118"
         inkscape:connector-curvature="0" />
    </g>
  </g>
</svg>
